# xmcd
#
# Track frame offsets: 
#        150
#        622
#        13532
#        29308
#        47319
#        71798
#        86106
#        108169
#        125521
#        142606
#        157504
#        180755
#        207181
#        233560
#        259221
#
# Disc length: 3704 seconds
#
# Revision: 0
# Processed by: cddbd v1.5.2PL0 Copyright (c) Steve Scherf et al.
# Submitted via: ExactAudioCopy v0.95b4
#
DISCID=a80e760f
DTITLE=Clint Black - Austin City Limits
DYEAR=2000
DGENRE=Country
TTITLE0=Blank
TTITLE1=Live and Learn
TTITLE2=Dixie Lullaby
TTITLE3=Ode To Chet
TTITLE4=Been There
TTITLE5=Galaxy Song
TTITLE6=When I Said I Do
TTITLE7=I'll Take Texas
TTITLE8=We Tell Ourselves
TTITLE9=Traffic Jam
TTITLE10=Nothin' But The Taillights
TTITLE11=Josie
TTITLE12=Put Yourself In My Shoes
TTITLE13=CMT Showcase 1
TTITLE14=CMT Showcase 2
EXTD=
EXTT0=
EXTT1=
EXTT2=
EXTT3=
EXTT4=
EXTT5=
EXTT6=
EXTT7=
EXTT8=
EXTT9=
EXTT10=
EXTT11=
EXTT12=
EXTT13=
EXTT14=
PLAYORDER=
